<svg xmlns="http://www.w3.org/2000/svg" viewBox="0 0 64 64" role="img" aria-label="Soraya Safaris">
  <defs><clipPath id="disc"><circle cx="32" cy="32" r="32"/></clipPath></defs>
  <circle cx="32" cy="32" r="32" fill="#0b1d34"/>
  <g clip-path="url(#disc)">
  <path d="M-2 46 C 12 42.5 24 45 34 49.5 C 45 54.5 56 51.5 66 45.5 L66 66 L-2 66 Z" fill="#c8a15a"/>
  <path d="M-2 49.5 C 8 46.5 18.5 48.5 25.5 52.5 C 30 55.5 31.5 60.5 30 66 L 21.5 66 C 23 61 21.5 57 17.5 54 C 12 50.5 4 50 -2 52.5 Z" fill="#e8d8b5"/>
  <path d="M5 32 C 5 26 11 23 21 23 C 31 23 37 26 37 32 Z" fill="#4a7560"/>
  <path d="M19.4 47.5 C 20.1 41.5 20.2 38.5 20.1 36.5 C 19.6 34.8 17.6 33.4 13.6 31.6 L 14.6 30.4 C 19 32.4 21 34 21.5 35.8 C 22 34 24 32.4 28.4 30.4 L 29.4 31.6 C 25.4 33.4 23.4 34.8 22.9 36.5 C 22.8 38.5 22.9 41.5 23.6 47.5 Z" fill="#4a7560"/>
  </g>
  <path d="M47.00 8.00 L48.31 14.34 L53.72 10.78 L50.16 16.19 L56.50 17.50 L50.16 18.81 L53.72 24.22 L48.31 20.66 L47.00 27.00 L45.69 20.66 L40.28 24.22 L43.84 18.81 L37.50 17.50 L43.84 16.19 L40.28 10.78 L45.69 14.34 Z" fill="#c8a15a"/>
  <path d="M36.50 5.70 L37.02 8.24 L39.19 6.81 L37.76 8.98 L40.30 9.50 L37.76 10.02 L39.19 12.19 L37.02 10.76 L36.50 13.30 L35.98 10.76 L33.81 12.19 L35.24 10.02 L32.70 9.50 L35.24 8.98 L33.81 6.81 L35.98 8.24 Z" fill="#c8a15a"/>
  </svg>
